<svg version="1.1" xmlns="http://www.w3.org/2000/svg" style="display: block;" viewBox="0 0 2048 1343" width="840" height="551" preserveAspectRatio="none">
<path transform="translate(0,0)" fill="rgb(27,27,27)" d="M 1215.43 102.442 C 1271.13 99.3814 1295.13 120.602 1338 150.872 L 1413.22 203.962 L 1492.36 259.591 C 1509.2 271.457 1527.21 283.763 1543.02 296.823 C 1557.34 308.651 1559.62 314.716 1560.42 332.511 C 1561.15 348.745 1560.82 365.724 1560.81 382.041 L 1560.78 468.257 L 1560.81 742.22 L 1560.85 988.55 L 1560.86 1066.25 C 1560.85 1115.84 1565.68 1167.49 1501.13 1177.55 C 1475.73 1181.51 1450.24 1181.97 1424.6 1183.54 L 1287.32 1191.85 L 829.243 1219.62 L 775.084 1222.98 C 700.055 1227.17 693.427 1218.83 650.131 1162.51 L 607.243 1106.8 L 546.694 1028.15 C 520.302 993.82 488.431 957.973 487.523 912.551 C 487.182 895.52 487.225 878.559 487.237 861.528 L 487.311 771.962 L 487.325 494.011 L 487.311 308.013 C 487.305 277.072 486.474 245.791 488.087 214.899 C 489.784 182.382 511.799 156.132 544.659 152.051 C 572.671 148.572 601.257 147.082 629.421 145.004 L 796.418 132.699 L 1065.46 112.779 C 1113.35 109.254 1167.86 103.945 1215.43 102.442 z"/>
<path transform="translate(0,0)" fill="rgb(254,254,254)" d="M 711.506 424.197 C 718.924 396.621 741.331 399.911 764.892 397.983 C 781.93 396.589 799.306 395.951 816.393 394.961 L 974.883 385.732 L 1293.73 367.057 L 1398.47 360.921 C 1417.09 359.831 1435.82 358.634 1454.45 357.819 C 1460.33 357.561 1466.37 358.45 1471.43 361.558 C 1480 366.812 1482.7 374.282 1484.96 383.474 C 1487.26 398.027 1486.15 448.948 1486.13 465.746 L 1486.11 628.996 L 1486.12 913.274 L 1486.14 1005.13 C 1486.15 1022.66 1486.26 1040.08 1485.79 1057.61 C 1484.55 1103.79 1442.05 1099.18 1407.87 1101.1 L 1341.05 1104.85 L 1116.74 1117.92 L 878.496 1131.71 L 803.806 1136.14 C 780.432 1137.51 743.218 1143.09 723.702 1129.59 C 706.592 1117.75 709.619 1085.09 709.606 1066.6 L 709.606 1006.29 L 709.651 800.866 L 709.658 540.031 L 709.58 473.796 C 709.557 459.939 708.923 437.024 711.506 424.197 z"/>
<path transform="translate(0,0)" fill="rgb(220,220,220)" d="M 711.506 424.197 C 718.924 396.621 741.331 399.911 764.892 397.983 C 781.93 396.589 799.306 395.951 816.393 394.961 L 974.883 385.732 L 1293.73 367.057 L 1398.47 360.921 C 1417.09 359.831 1435.82 358.634 1454.45 357.819 C 1460.33 357.561 1466.37 358.45 1471.43 361.558 C 1480 366.812 1482.7 374.282 1484.96 383.474 C 1480.87 378.087 1477.96 373.345 1474.43 367.638 C 1471.36 367.619 1472.55 367.34 1469.86 369.101 C 1472.23 371.097 1474.2 372.802 1476.45 374.951 C 1473.65 374.924 1464.52 369.538 1461.86 369.026 C 1457.6 368.206 1448.13 368.167 1443.76 368.386 C 1404.08 370.373 1364.14 373.124 1324.5 375.424 L 1038.08 392.119 L 838.896 403.787 C 811.818 405.393 784.703 406.583 757.634 408.471 C 739.593 409.729 725.013 410.534 711.506 424.197 z"/>
<path transform="translate(0,0)" fill="rgb(27,27,27)" d="M 1191.82 529.628 C 1191.97 510.382 1198.13 493.157 1219.61 488.2 C 1239.33 483.647 1262.08 485.434 1282.33 483.211 C 1313.87 481.769 1346.52 478.837 1377.79 477.838 C 1385.33 522.37 1359.31 518.926 1325.49 525.748 L 1325.72 1005 C 1296.9 1020.67 1258.28 1036.28 1225.58 1026.54 C 1196.24 1017.79 1171.45 973.216 1155.93 948.753 L 1114.87 883.954 C 1065.9 806.766 1016.51 727.511 966.745 650.982 C 964.826 758.087 967.556 867.37 966.484 974.752 C 988.728 979.778 1012.06 984.667 1034.13 990.061 L 1031.57 1001.92 C 1030.97 1011.83 1025.85 1011.94 1025.4 1023.61 C 1012.65 1036.79 1001.33 1039.06 983.486 1040.27 C 936.654 1043.45 889.701 1046.31 842.808 1048.31 C 838.904 1048.48 833.405 1048.4 829.684 1047.39 C 827.736 1045.1 827.175 1040.61 827.695 1037.76 C 826.832 998.619 851.707 1001.11 883.674 992.038 C 882.562 978.186 883.215 956.122 883.221 941.937 L 883.236 852.294 L 883.349 573.952 C 868.929 571.555 838.904 571.965 829.436 565.359 C 827.612 562.773 828.008 558.932 827.917 555.533 C 830.138 514.797 848.648 507.942 886.506 506.787 C 896.031 506.496 907.945 505.355 917.7 504.697 C 954.354 502.07 991.026 499.703 1027.71 497.597 C 1031.95 505.686 1045.08 524.622 1050.78 533.351 L 1098.13 605.797 L 1249.17 837.012 L 1249.06 555.544 C 1248.8 553.974 1248.3 550.164 1246.99 549.326 C 1235.19 541.794 1201.19 547.263 1192.41 537.372 C 1190.92 534.01 1191.18 533.307 1191.82 529.628 z"/>
<path transform="translate(0,0)" fill="rgb(220,220,220)" d="M 1031.57 1001.92 C 1030.97 1011.83 1025.85 1011.94 1025.4 1023.61 C 1012.65 1036.79 1001.33 1039.06 983.486 1040.27 C 936.654 1043.45 889.701 1046.31 842.808 1048.31 C 838.904 1048.48 833.405 1048.4 829.684 1047.39 C 827.736 1045.1 827.175 1040.61 827.695 1037.76 C 846.309 1038.28 888.449 1034.6 908.173 1033.46 L 961.21 1030.37 C 991.867 1028.57 1014.42 1031.63 1031.57 1001.92 z"/>
<path transform="translate(0,0)" fill="rgb(220,220,220)" d="M 1191.82 529.628 C 1195.4 530.257 1198.92 530.958 1202.54 531.265 C 1216.29 532.741 1230.15 534.14 1243.88 535.812 C 1249.33 536.475 1249.2 537.215 1249.45 542.605 C 1249.25 546.989 1249.06 551.153 1249.06 555.544 C 1248.8 553.974 1248.3 550.164 1246.99 549.326 C 1235.19 541.794 1201.19 547.263 1192.41 537.372 C 1190.92 534.01 1191.18 533.307 1191.82 529.628 z"/>
<path transform="translate(0,0)" fill="rgb(220,220,220)" d="M 827.917 555.533 C 829.862 557.991 830.107 558.487 833.999 558.845 C 850.385 560.35 866.91 561.519 883.32 562.744 L 883.349 573.952 C 868.929 571.555 838.904 571.965 829.436 565.359 C 827.612 562.773 828.008 558.932 827.917 555.533 z"/>
<path transform="translate(0,0)" fill="rgb(254,254,254)" d="M 585.21 228.749 C 582.244 220.606 585.239 213.512 594.154 211.922 C 619.646 207.375 647.191 206.53 673.234 204.623 L 855.361 191.333 L 1093.45 173.907 L 1168.66 168.403 C 1195.12 166.473 1224.15 162.714 1250.05 169.419 C 1273.97 175.612 1293.23 191.555 1312.83 205.714 C 1341.68 226.699 1370.65 247.589 1399.4 268.702 C 1402.92 271.281 1407.48 275.825 1407.73 280.363 C 1405.4 283.972 1403.3 283.882 1399.06 283.927 C 1344.57 286.462 1288.83 290.499 1234.21 293.797 L 921.108 312.645 L 813.691 319.165 C 791.621 320.56 724.889 327.577 705.523 319.137 C 672.731 304.845 636.779 268.118 606.884 246.708 C 600.657 242.249 590.817 234.029 585.21 228.749 z"/>
<path transform="translate(0,0)" fill="rgb(220,220,220)" d="M 585.21 228.749 C 582.244 220.606 585.239 213.512 594.154 211.922 C 619.646 207.375 647.191 206.53 673.234 204.623 L 855.361 191.333 L 1093.45 173.907 L 1168.66 168.403 C 1195.12 166.473 1224.15 162.714 1250.05 169.419 C 1273.97 175.612 1293.23 191.555 1312.83 205.714 C 1341.68 226.699 1370.65 247.589 1399.4 268.702 C 1402.92 271.281 1407.48 275.825 1407.73 280.363 C 1405.4 283.972 1403.3 283.882 1399.06 283.927 L 1399.96 281.514 C 1398.58 278.299 1375.74 263.2 1371.01 259.768 L 1316.94 220.538 C 1302.72 210.108 1287.35 197.795 1271.9 189.708 C 1232.85 169.281 1180.91 178.777 1138.18 181.89 L 982.301 193.377 L 736.388 211.211 L 655.358 217.185 C 638.284 218.433 596.944 218.652 585.21 228.749 z"/>
</svg>